<svg width="100" height="34" viewBox="0 0 231 34" fill="none" xmlns="http://www.w3.org/2000/svg">
    <path
        d="M87.3222 33.3838C84.8066 33.3838 82.6165 32.9242 80.752 32.0051C78.917 31.0859 77.4668 29.811 76.4014 28.1803C75.3359 26.5496 74.7144 24.652 74.5368 22.4876L79.4645 22.1762C79.6717 23.6587 80.1008 24.9188 80.752 25.9566C81.4031 26.9647 82.2761 27.7355 83.3712 28.2692C84.4958 28.7733 85.8424 29.0253 87.411 29.0253C88.7724 29.0253 89.9266 28.8622 90.8737 28.5361C91.8503 28.1803 92.5902 27.6614 93.0934 26.9795C93.5965 26.2975 93.8481 25.4673 93.8481 24.4889C93.8481 23.5994 93.6261 22.8137 93.1822 22.1318C92.7678 21.4202 91.9539 20.7827 90.7405 20.2194C89.5567 19.6264 87.8105 19.0482 85.5021 18.4849C82.9864 17.8622 80.9739 17.1803 79.4645 16.439C77.9552 15.6978 76.8601 14.7787 76.1794 13.6816C75.5283 12.5549 75.2028 11.1762 75.2028 9.54551C75.2028 7.73689 75.6319 6.15063 76.4902 4.78675C77.378 3.39322 78.6359 2.31101 80.2636 1.54012C81.8914 0.769233 83.8447 0.383789 86.1236 0.383789C88.5208 0.383789 90.5629 0.828533 92.2499 1.71802C93.9665 2.60751 95.313 3.82314 96.2897 5.36492C97.296 6.9067 97.9175 8.67085 98.1542 10.6574L93.2265 10.9242C93.0786 9.70859 92.7086 8.6412 92.1167 7.72206C91.5248 6.77328 90.7257 6.04686 89.7195 5.54282C88.7132 5.00913 87.485 4.74228 86.0348 4.74228C84.1999 4.74228 82.7497 5.1722 81.6842 6.03204C80.6484 6.86222 80.1304 7.97408 80.1304 9.36762C80.1304 10.2571 80.3376 11.0132 80.752 11.6358C81.1959 12.2288 81.9654 12.7477 83.0604 13.1924C84.1851 13.6372 85.7684 14.1116 87.8105 14.6156C90.5333 15.2382 92.6938 16.0091 94.292 16.9283C95.9198 17.8178 97.074 18.8703 97.7547 20.0859C98.4354 21.3016 98.7757 22.6803 98.7757 24.2221C98.7757 26.09 98.2874 27.7207 97.3108 29.1142C96.3637 30.4781 95.0319 31.5307 93.3153 32.2719C91.5988 33.0132 89.6011 33.3838 87.3222 33.3838Z"
        fill="white" />
    <path
        d="M110.145 33.2059C107.689 33.2059 105.721 32.6426 104.241 31.5159C102.791 30.3892 102.066 28.8029 102.066 26.7571C102.066 24.7113 102.672 23.125 103.886 21.9983C105.129 20.842 107.038 20.0118 109.613 19.5078L117.737 17.9512C117.737 16.1129 117.308 14.749 116.449 13.8595C115.591 12.9404 114.318 12.4808 112.631 12.4808C111.122 12.4808 109.938 12.8218 109.08 13.5037C108.222 14.156 107.63 15.1345 107.304 16.439L102.465 16.1277C102.909 13.7558 104.004 11.8878 105.75 10.524C107.526 9.16007 109.82 8.47813 112.631 8.47813C115.828 8.47813 118.255 9.33797 119.912 11.0576C121.599 12.7477 122.442 15.1345 122.442 18.218V27.4242C122.442 27.9876 122.531 28.3878 122.709 28.625C122.916 28.8326 123.241 28.9364 123.685 28.9364H124.529V32.6722C124.381 32.7019 124.144 32.7315 123.819 32.7611C123.493 32.7908 123.153 32.8056 122.798 32.8056C121.791 32.8056 120.918 32.6426 120.178 32.3164C119.468 31.9903 118.935 31.4566 118.58 30.7153C118.225 29.9444 118.047 28.9215 118.047 27.6466L118.536 27.869C118.299 28.9067 117.781 29.8258 116.982 30.6264C116.212 31.4269 115.221 32.0644 114.008 32.5388C112.824 32.9835 111.536 33.2059 110.145 33.2059ZM110.9 29.47C112.321 29.47 113.534 29.2032 114.54 28.6695C115.547 28.1062 116.331 27.3353 116.893 26.3568C117.456 25.3784 117.737 24.2665 117.737 23.0213V21.5091L110.811 22.8434C109.391 23.1102 108.384 23.5401 107.793 24.1331C107.23 24.6965 106.949 25.4229 106.949 26.3124C106.949 27.3204 107.289 28.1062 107.97 28.6695C108.68 29.2032 109.657 29.47 110.9 29.47Z"
        fill="white" />
    <path
        d="M136.098 33.2059C133.878 33.2059 131.999 32.8649 130.46 32.183C128.95 31.501 127.781 30.5671 126.953 29.3811C126.124 28.1655 125.65 26.7719 125.532 25.2005L130.371 24.9781C130.608 26.2827 131.17 27.3204 132.058 28.0913C132.946 28.8622 134.292 29.2477 136.098 29.2477C137.577 29.2477 138.746 29.0105 139.605 28.5361C140.463 28.0617 140.892 27.3056 140.892 26.2679C140.892 25.7045 140.744 25.2302 140.448 24.8447C140.182 24.4296 139.649 24.0886 138.85 23.8218C138.051 23.5253 136.867 23.2436 135.299 22.9768C132.96 22.532 131.126 22.0132 129.794 21.4202C128.462 20.8272 127.515 20.0711 126.953 19.152C126.39 18.2328 126.109 17.121 126.109 15.8164C126.109 13.652 126.908 11.8878 128.506 10.524C130.134 9.16007 132.472 8.47813 135.52 8.47813C137.563 8.47813 139.279 8.83392 140.67 9.54551C142.061 10.2275 143.141 11.1614 143.911 12.3474C144.71 13.5037 145.213 14.8083 145.42 16.2611L140.581 16.528C140.433 15.6978 140.137 14.9862 139.693 14.3932C139.279 13.7706 138.717 13.2962 138.007 12.97C137.296 12.6142 136.453 12.4364 135.476 12.4364C133.967 12.4364 132.842 12.7328 132.102 13.3258C131.362 13.9188 130.992 14.6897 130.992 15.6385C130.992 16.3501 131.155 16.9283 131.481 17.373C131.836 17.8178 132.398 18.1884 133.168 18.4849C133.937 18.7517 134.958 18.9889 136.231 19.1965C138.687 19.6116 140.611 20.1304 142.002 20.7531C143.393 21.3461 144.37 22.0873 144.932 22.9768C145.494 23.8663 145.775 24.9485 145.775 26.2234C145.775 27.7059 145.361 28.966 144.532 30.0037C143.704 31.0415 142.564 31.842 141.114 32.4054C139.664 32.939 137.992 33.2059 136.098 33.2059Z"
        fill="white" />
    <path
        d="M149.206 32.6722V1.09538H153.912V14.3487L153.334 14.2598C153.601 12.9256 154.089 11.8434 154.799 11.0132C155.51 10.1533 156.383 9.51586 157.419 9.10077C158.455 8.68568 159.594 8.47813 160.837 8.47813C162.554 8.47813 164.004 8.86357 165.188 9.63446C166.371 10.3757 167.259 11.4283 167.851 12.7921C168.473 14.156 168.783 15.7126 168.783 17.462V32.6722H164.078V18.7072C164.078 16.5725 163.708 15.001 162.968 13.993C162.258 12.9552 161.133 12.4364 159.594 12.4364C157.877 12.4364 156.501 12.9849 155.465 14.0819C154.429 15.1493 153.912 16.7207 153.912 18.7962V32.6722H149.206Z"
        fill="white" />
    <path
        d="M180.24 33.2059C177.784 33.2059 175.816 32.6426 174.336 31.5159C172.886 30.3892 172.161 28.8029 172.161 26.7571C172.161 24.7113 172.768 23.125 173.981 21.9983C175.224 20.842 177.133 20.0118 179.708 19.5078L187.832 17.9512C187.832 16.1129 187.403 14.749 186.544 13.8595C185.686 12.9404 184.413 12.4808 182.726 12.4808C181.217 12.4808 180.033 12.8218 179.175 13.5037C178.317 14.156 177.725 15.1345 177.399 16.439L172.56 16.1277C173.004 13.7558 174.099 11.8878 175.845 10.524C177.621 9.16007 179.915 8.47813 182.726 8.47813C185.923 8.47813 188.35 9.33797 190.007 11.0576C191.694 12.7477 192.537 15.1345 192.537 18.218V27.4242C192.537 27.9876 192.626 28.3878 192.804 28.625C193.011 28.8326 193.337 28.9364 193.78 28.9364H194.624V32.6722C194.476 32.7019 194.239 32.7315 193.914 32.7611C193.588 32.7908 193.248 32.8056 192.893 32.8056C191.886 32.8056 191.013 32.6426 190.273 32.3164C189.563 31.9903 189.03 31.4566 188.675 30.7153C188.32 29.9444 188.142 28.9215 188.142 27.6466L188.631 27.869C188.394 28.9067 187.876 29.8258 187.077 30.6264C186.308 31.4269 185.316 32.0644 184.103 32.5388C182.919 32.9835 181.631 33.2059 180.24 33.2059ZM180.995 29.47C182.416 29.47 183.629 29.2032 184.635 28.6695C185.642 28.1062 186.426 27.3353 186.988 26.3568C187.551 25.3784 187.832 24.2665 187.832 23.0213V21.5091L180.906 22.8434C179.486 23.1102 178.479 23.5401 177.888 24.1331C177.325 24.6965 177.044 25.4229 177.044 26.3124C177.044 27.3204 177.384 28.1062 178.065 28.6695C178.775 29.2032 179.752 29.47 180.995 29.47Z"
        fill="white" />
    <path
        d="M194.954 32.6722L206.319 1.09538H212.4L223.765 32.6722H218.66L215.774 24.4444H202.9L200.059 32.6722H194.954ZM204.41 20.0859H214.309L209.337 5.67624L204.41 20.0859Z"
        fill="white" />
    <path d="M226.205 32.6722V1.09538H231V32.6722H226.205Z" fill="white" />
    <path
        d="M16.3389 4.99878C16.4499 5.06506 16.9122 5.45322 17.3561 5.86979C18.1513 6.60825 19.5013 7.85795 21.0825 9.31594C21.5079 9.71357 21.9055 10.0828 21.961 10.1301C22.0164 10.1869 22.8949 10.9917 23.912 11.929C24.9292 12.8662 25.7799 13.652 25.8076 13.6804C25.9093 13.7846 27.6292 15.3562 27.9621 15.6497L28.3135 15.9526H32.8351L33.131 15.6781L33.4362 15.4035L33.5287 5.42482L33.8338 5.15026L34.1297 4.8757H38.8918C42.1096 4.8757 43.7186 4.90411 43.8665 4.97985C44.4028 5.226 44.3936 5.17867 44.3936 10.4331C44.3936 15.0627 44.3589 15.5323 44.3589 15.5739C44.3589 15.8579 44.0145 15.8674 44.0052 15.8769C43.9867 15.8864 41.7583 15.9242 39.0582 15.9526L34.1297 16L33.8338 16.3124L33.5287 16.6153L33.4362 26.5562L33.205 26.7834L32.9738 27.0201L30.7546 27.0295C29.5341 27.0295 28.4152 27.039 28.2765 27.0295C28.0916 27.0295 27.8419 26.8591 27.3518 26.3952C26.2237 25.3254 25.6042 24.7479 24.6055 23.8106C24.0692 23.3183 23.3665 22.6556 23.0336 22.3337C22.7007 22.0213 22.2014 21.5479 21.924 21.2923C19.002 18.5467 18.253 17.8366 17.2266 16.8426C16.8475 16.4828 16.4314 16.142 16.3019 16.0757C16.1263 16 15.368 15.9621 13.8978 15.9526C11.5121 15.9526 11.3457 15.9905 11.0128 16.5491C10.8371 16.8426 10.8279 17.0603 10.8279 21.6899V26.5183L10.2638 27.0769L5.76065 27.1053C3.28252 27.1242 1.08179 27.1053 0.869118 27.0769C0.637949 27.039 0.397532 26.9254 0.249584 26.7739L0.00917033 26.5278V21.5668C0.00917033 18.3479 -0.0601803 16.4912 0.182547 16.2129C0.425274 15.9346 0.416027 15.9526 5.45551 15.9526H10.1806L10.4765 15.6781L10.7816 15.4035L10.8741 5.42482L11.1792 5.15026L11.4751 4.8757H13.8146C15.4697 4.88517 16.2002 4.91358 16.3389 4.99878Z"
        fill="white" />
</svg>