<svg width="400" height="58" viewBox="0 0 400 58" fill="none" xmlns="http://www.w3.org/2000/svg">
<path d="M151.207 57.3838C146.851 57.3838 143.059 56.59 139.83 55.0024C136.653 53.4148 134.142 51.2126 132.297 48.3959C130.452 45.5792 129.376 42.3016 129.068 38.563L137.601 38.0253C137.96 40.5859 138.703 42.7625 139.83 44.555C140.958 46.2962 142.47 47.6277 144.366 48.5496C146.313 49.4202 148.645 49.8555 151.361 49.8555C153.718 49.8555 155.717 49.5738 157.357 49.0105C159.048 48.3959 160.329 47.4997 161.201 46.3218C162.072 45.1439 162.507 43.7099 162.507 42.0199C162.507 40.4835 162.123 39.1264 161.354 37.9485C160.637 36.7194 159.228 35.6183 157.126 34.6452C155.077 33.621 152.053 32.6223 148.056 31.6493C143.699 30.5738 140.215 29.3959 137.601 28.1156C134.987 26.8353 133.091 25.2477 131.912 23.3528C130.785 21.4067 130.221 19.0253 130.221 16.2086C130.221 13.0846 130.964 10.3447 132.451 7.98891C133.988 5.5819 136.166 3.71263 138.985 2.38109C141.803 1.04956 145.186 0.383789 149.132 0.383789C153.283 0.383789 156.819 1.15198 159.74 2.68837C162.712 4.22476 165.044 6.32449 166.735 8.98756C168.478 11.6506 169.554 14.6978 169.964 18.1291L161.431 18.59C161.175 16.4903 160.534 14.6466 159.509 13.059C158.485 11.4202 157.101 10.1655 155.358 9.29484C153.616 8.37301 151.489 7.91209 148.978 7.91209C145.801 7.91209 143.289 8.65468 141.445 10.1399C139.651 11.5738 138.754 13.4943 138.754 15.9013C138.754 17.4377 139.113 18.7436 139.83 19.8191C140.599 20.8434 141.931 21.7396 143.828 22.5078C145.775 23.276 148.517 24.0954 152.053 24.966C156.768 26.0415 160.509 27.373 163.276 28.9606C166.095 30.497 168.094 32.3151 169.272 34.4148C170.451 36.5145 171.04 38.8959 171.04 41.559C171.04 44.7854 170.195 47.6021 168.503 50.0091C166.864 52.3649 164.557 54.183 161.585 55.4633C158.613 56.7436 155.153 57.3838 151.207 57.3838Z" fill="white"/>
<path d="M190.728 57.0765C186.474 57.0765 183.066 56.1035 180.504 54.1574C177.993 52.2113 176.737 49.4714 176.737 45.9377C176.737 42.404 177.788 39.6641 179.889 37.718C182.041 35.7207 185.347 34.2868 189.805 33.4161L203.873 30.7275C203.873 27.5523 203.13 25.1965 201.644 23.6601C200.158 22.0725 197.954 21.2787 195.033 21.2787C192.419 21.2787 190.369 21.8676 188.883 23.0455C187.397 24.1722 186.372 25.8622 185.808 28.1156L177.429 27.5779C178.198 23.4808 180.094 20.2544 183.118 17.8986C186.192 15.5428 190.164 14.3649 195.033 14.3649C200.568 14.3649 204.77 15.8501 207.64 18.8204C210.561 21.7396 212.021 25.8622 212.021 31.1884V47.09C212.021 48.063 212.175 48.7544 212.483 49.1641C212.841 49.5226 213.405 49.7019 214.174 49.7019H215.634V56.1547C215.378 56.2059 214.968 56.2571 214.405 56.3083C213.841 56.3595 213.251 56.3851 212.636 56.3851C210.894 56.3851 209.382 56.1035 208.101 55.5401C206.871 54.9768 205.949 54.055 205.334 52.7746C204.719 51.4431 204.411 49.6762 204.411 47.4741L205.257 47.8582C204.847 49.6506 203.95 51.2382 202.566 52.621C201.234 54.0037 199.517 55.1048 197.416 55.9242C195.366 56.6924 193.137 57.0765 190.728 57.0765ZM192.035 50.6237C194.495 50.6237 196.596 50.1628 198.338 49.2409C200.081 48.2679 201.439 46.9364 202.412 45.2463C203.386 43.5563 203.873 41.6358 203.873 39.4849V36.873L191.881 39.1776C189.421 39.6385 187.679 40.3811 186.654 41.4054C185.68 42.3784 185.193 43.6331 185.193 45.1695C185.193 46.9107 185.782 48.2679 186.961 49.2409C188.191 50.1628 189.882 50.6237 192.035 50.6237Z" fill="white"/>
<path d="M235.667 57.0765C231.823 57.0765 228.569 56.4876 225.904 55.3097C223.29 54.1318 221.266 52.5186 219.831 50.47C218.396 48.3703 217.576 45.9633 217.371 43.249L225.75 42.8649C226.16 45.1183 227.134 46.9107 228.671 48.2423C230.209 49.5738 232.541 50.2396 235.667 50.2396C238.229 50.2396 240.254 49.8299 241.74 49.0105C243.226 48.1911 243.969 46.8851 243.969 45.0927C243.969 44.1196 243.713 43.3002 243.2 42.6345C242.739 41.9175 241.817 41.3285 240.433 40.8676C239.049 40.3555 236.999 39.869 234.283 39.4081C230.235 38.6399 227.057 37.7436 224.751 36.7194C222.445 35.6951 220.805 34.3892 219.831 32.8016C218.857 31.214 218.371 29.2935 218.371 27.0401C218.371 23.3016 219.754 20.2544 222.522 17.8986C225.34 15.5428 229.389 14.3649 234.667 14.3649C238.204 14.3649 241.176 14.9795 243.585 16.2086C245.993 17.3865 247.864 18.9997 249.196 21.0482C250.58 23.0455 251.451 25.2989 251.81 27.8083L243.431 28.2692C243.175 26.8353 242.662 25.6062 241.893 24.5819C241.176 23.5064 240.202 22.687 238.972 22.1237C237.742 21.5091 236.282 21.2018 234.591 21.2018C231.977 21.2018 230.03 21.714 228.748 22.7382C227.467 23.7625 226.827 25.094 226.827 26.7328C226.827 27.962 227.108 28.9606 227.672 29.7288C228.287 30.497 229.261 31.1372 230.593 31.6493C231.926 32.1102 233.694 32.5199 235.897 32.8784C240.151 33.5954 243.482 34.4916 245.891 35.5671C248.299 36.5913 249.991 37.8717 250.964 39.4081C251.938 40.9444 252.425 42.8137 252.425 45.0159C252.425 47.5765 251.707 49.7531 250.273 51.5455C248.838 53.338 246.865 54.7207 244.353 55.6938C241.842 56.6156 238.947 57.0765 235.667 57.0765Z" fill="white"/>
<path d="M258.365 56.1547V1.6129H266.514V24.5051L265.514 24.3514C265.975 22.0469 266.821 20.1776 268.051 18.7436C269.281 17.2585 270.793 16.1574 272.586 15.4404C274.38 14.7234 276.353 14.3649 278.506 14.3649C281.478 14.3649 283.989 15.0307 286.039 16.3622C288.089 17.6425 289.626 19.4606 290.651 21.8164C291.728 24.1722 292.266 26.8609 292.266 29.8824V56.1547H284.117V32.0334C284.117 28.3461 283.477 25.6318 282.195 23.8905C280.965 22.0981 279.018 21.2018 276.353 21.2018C273.381 21.2018 270.998 22.1493 269.204 24.0442C267.41 25.8878 266.514 28.6021 266.514 32.187V56.1547H258.365Z" fill="white"/>
<path d="M312.105 57.0765C307.851 57.0765 304.443 56.1035 301.881 54.1574C299.37 52.2113 298.114 49.4714 298.114 45.9377C298.114 42.404 299.165 39.6641 301.266 37.718C303.418 35.7207 306.724 34.2868 311.182 33.4161L325.25 30.7275C325.25 27.5523 324.507 25.1965 323.021 23.6601C321.534 22.0725 319.331 21.2787 316.41 21.2787C313.796 21.2787 311.746 21.8676 310.26 23.0455C308.774 24.1722 307.749 25.8622 307.185 28.1156L298.806 27.5779C299.575 23.4808 301.471 20.2544 304.494 17.8986C307.569 15.5428 311.541 14.3649 316.41 14.3649C321.944 14.3649 326.147 15.8501 329.017 18.8204C331.938 21.7396 333.398 25.8622 333.398 31.1884V47.09C333.398 48.063 333.552 48.7544 333.859 49.1641C334.218 49.5226 334.782 49.7019 335.551 49.7019H337.011V56.1547C336.755 56.2059 336.345 56.2571 335.781 56.3083C335.218 56.3595 334.628 56.3851 334.013 56.3851C332.271 56.3851 330.759 56.1035 329.478 55.5401C328.248 54.9768 327.325 54.055 326.71 52.7746C326.095 51.4431 325.788 49.6762 325.788 47.4741L326.633 47.8582C326.224 49.6506 325.327 51.2382 323.943 52.621C322.61 54.0037 320.894 55.1048 318.793 55.9242C316.743 56.6924 314.513 57.0765 312.105 57.0765ZM313.412 50.6237C315.871 50.6237 317.973 50.1628 319.715 49.2409C321.457 48.2679 322.815 46.9364 323.789 45.2463C324.763 43.5563 325.25 41.6358 325.25 39.4849V36.873L313.258 39.1776C310.798 39.6385 309.055 40.3811 308.03 41.4054C307.057 42.3784 306.57 43.6331 306.57 45.1695C306.57 46.9107 307.159 48.2679 308.338 49.2409C309.568 50.1628 311.259 50.6237 313.412 50.6237Z" fill="white"/>
<path d="M337.582 56.1547L357.262 1.6129H367.793L387.472 56.1547H378.632L373.635 41.9431H351.342L346.423 56.1547H337.582ZM353.956 34.4148H371.099L362.489 9.5253L353.956 34.4148Z" fill="white"/>
<path d="M391.698 56.1547V1.6129H400V56.1547H391.698Z" fill="white"/>
<path d="M28.2925 8.35515C28.4847 8.46962 29.2853 9.14008 30.0538 9.8596C31.4308 11.1351 33.7685 13.2937 36.5065 15.812C37.2431 16.4989 37.9316 17.1366 38.0276 17.2184C38.1237 17.3165 39.6448 18.7065 41.4061 20.3254C43.1674 21.9444 44.6405 23.3017 44.6885 23.3507C44.8646 23.5306 47.8428 26.2452 48.4192 26.7521L49.0277 27.2754H56.8574L57.3698 26.8012L57.8982 26.327L58.0583 9.09102L58.5867 8.61679L59.099 8.14255H67.3451C72.9171 8.14255 75.7032 8.19161 75.9593 8.32243C76.888 8.74761 76.872 8.66585 76.872 17.7417C76.872 25.7382 76.812 26.5494 76.812 26.6212C76.812 27.1118 76.2155 27.1282 76.1995 27.1446C76.1675 27.1609 72.3087 27.2264 67.6333 27.2754L59.099 27.3572L58.5867 27.8968L58.0583 28.4201L57.8982 45.5906L57.4979 45.9831L57.0976 46.3919L53.2548 46.4083C51.1412 46.4083 49.2038 46.4246 48.9636 46.4083C48.6434 46.4083 48.2111 46.1139 47.3625 45.3126C45.409 43.4648 44.3362 42.4672 42.607 40.8483C41.6783 39.998 40.4614 38.8532 39.885 38.2973C39.3086 37.7576 38.4439 36.94 37.9636 36.4984C32.9039 31.7561 31.607 30.5296 29.8297 28.8126C29.1732 28.1912 28.4526 27.6025 28.2285 27.488C27.9243 27.3572 26.6113 27.2918 24.0654 27.2754C19.9344 27.2754 19.6462 27.3408 19.0698 28.3056C18.7656 28.8126 18.7496 29.1887 18.7496 37.1853V45.5252L17.7728 46.49L9.97515 46.5391C5.68402 46.5718 1.87324 46.5391 1.50497 46.49C1.10467 46.4246 0.688368 46.2284 0.432181 45.9667L0.0158794 45.5416V36.9727C0.0158794 31.4127 -0.104208 28.2057 0.316099 27.7251C0.736406 27.2444 0.720393 27.2754 9.44677 27.2754H17.6287L18.1411 26.8012L18.6695 26.327L18.8296 9.09102L19.358 8.61679L19.8704 8.14255H23.9213C26.7874 8.1589 28.0524 8.20797 28.2925 8.35515Z" fill="white"/>
</svg>
