<svg width="421" height="82" viewBox="0 0 421 82" fill="none" xmlns="http://www.w3.org/2000/svg">
<path d="M154.36 70.28C149.827 70.28 145.88 69.4533 142.52 67.8C139.213 66.1467 136.6 63.8533 134.68 60.92C132.76 57.9867 131.64 54.5733 131.32 50.68L140.2 50.12C140.573 52.7867 141.347 55.0533 142.52 56.92C143.693 58.7333 145.267 60.12 147.24 61.08C149.267 61.9867 151.693 62.44 154.52 62.44C156.973 62.44 159.053 62.1467 160.76 61.56C162.52 60.92 163.853 59.9867 164.76 58.76C165.667 57.5333 166.12 56.04 166.12 54.28C166.12 52.68 165.72 51.2667 164.92 50.04C164.173 48.76 162.707 47.6133 160.52 46.6C158.387 45.5333 155.24 44.4933 151.08 43.48C146.547 42.36 142.92 41.1333 140.2 39.8C137.48 38.4667 135.507 36.8133 134.28 34.84C133.107 32.8133 132.52 30.3333 132.52 27.4C132.52 24.1467 133.293 21.2933 134.84 18.84C136.44 16.3333 138.707 14.3867 141.64 13C144.573 11.6133 148.093 10.92 152.2 10.92C156.52 10.92 160.2 11.72 163.24 13.32C166.333 14.92 168.76 17.1067 170.52 19.88C172.333 22.6533 173.453 25.8267 173.88 29.4L165 29.88C164.733 27.6933 164.067 25.7733 163 24.12C161.933 22.4133 160.493 21.1067 158.68 20.2C156.867 19.24 154.653 18.76 152.04 18.76C148.733 18.76 146.12 19.5333 144.2 21.08C142.333 22.5733 141.4 24.5733 141.4 27.08C141.4 28.68 141.773 30.04 142.52 31.16C143.32 32.2267 144.707 33.16 146.68 33.96C148.707 34.76 151.56 35.6133 155.24 36.52C160.147 37.64 164.04 39.0267 166.92 40.68C169.853 42.28 171.933 44.1733 173.16 46.36C174.387 48.5467 175 51.0267 175 53.8C175 57.16 174.12 60.0933 172.36 62.6C170.653 65.0533 168.253 66.9467 165.16 68.28C162.067 69.6133 158.467 70.28 154.36 70.28ZM195.489 69.96C191.062 69.96 187.515 68.9467 184.849 66.92C182.235 64.8933 180.929 62.04 180.929 58.36C180.929 54.68 182.022 51.8267 184.209 49.8C186.449 47.72 189.889 46.2267 194.529 45.32L209.169 42.52C209.169 39.2133 208.395 36.76 206.849 35.16C205.302 33.5067 203.009 32.68 199.969 32.68C197.249 32.68 195.115 33.2933 193.569 34.52C192.022 35.6933 190.955 37.4533 190.369 39.8L181.649 39.24C182.449 34.9733 184.422 31.6133 187.569 29.16C190.769 26.7067 194.902 25.48 199.969 25.48C205.729 25.48 210.102 27.0267 213.089 30.12C216.129 33.16 217.649 37.4533 217.649 43V59.56C217.649 60.5733 217.809 61.2933 218.129 61.72C218.502 62.0933 219.089 62.28 219.889 62.28H221.409V69C221.142 69.0533 220.715 69.1067 220.129 69.16C219.542 69.2133 218.929 69.24 218.289 69.24C216.475 69.24 214.902 68.9467 213.569 68.36C212.289 67.7733 211.329 66.8133 210.689 65.48C210.049 64.0933 209.729 62.2533 209.729 59.96L210.609 60.36C210.182 62.2267 209.249 63.88 207.809 65.32C206.422 66.76 204.635 67.9067 202.449 68.76C200.315 69.56 197.995 69.96 195.489 69.96ZM196.849 63.24C199.409 63.24 201.595 62.76 203.409 61.8C205.222 60.7867 206.635 59.4 207.649 57.64C208.662 55.88 209.169 53.88 209.169 51.64V48.92L196.689 51.32C194.129 51.8 192.315 52.5733 191.249 53.64C190.235 54.6533 189.729 55.96 189.729 57.56C189.729 59.3733 190.342 60.7867 191.569 61.8C192.849 62.76 194.609 63.24 196.849 63.24ZM242.256 69.96C238.256 69.96 234.87 69.3467 232.096 68.12C229.376 66.8933 227.27 65.2133 225.776 63.08C224.283 60.8933 223.43 58.3867 223.216 55.56L231.936 55.16C232.363 57.5067 233.376 59.3733 234.976 60.76C236.576 62.1467 239.003 62.84 242.256 62.84C244.923 62.84 247.03 62.4133 248.576 61.56C250.123 60.7067 250.896 59.3467 250.896 57.48C250.896 56.4667 250.63 55.6133 250.096 54.92C249.616 54.1733 248.656 53.56 247.216 53.08C245.776 52.5467 243.643 52.04 240.816 51.56C236.603 50.76 233.296 49.8267 230.896 48.76C228.496 47.6933 226.79 46.3333 225.776 44.68C224.763 43.0267 224.256 41.0267 224.256 38.68C224.256 34.7867 225.696 31.6133 228.576 29.16C231.51 26.7067 235.723 25.48 241.216 25.48C244.896 25.48 247.99 26.12 250.496 27.4C253.003 28.6267 254.95 30.3067 256.336 32.44C257.776 34.52 258.683 36.8667 259.056 39.48L250.336 39.96C250.07 38.4667 249.536 37.1867 248.736 36.12C247.99 35 246.976 34.1467 245.696 33.56C244.416 32.92 242.896 32.6 241.136 32.6C238.416 32.6 236.39 33.1333 235.056 34.2C233.723 35.2667 233.056 36.6533 233.056 38.36C233.056 39.64 233.35 40.68 233.936 41.48C234.576 42.28 235.59 42.9467 236.976 43.48C238.363 43.96 240.203 44.3867 242.496 44.76C246.923 45.5067 250.39 46.44 252.896 47.56C255.403 48.6267 257.163 49.96 258.176 51.56C259.19 53.16 259.696 55.1067 259.696 57.4C259.696 60.0667 258.95 62.3333 257.456 64.2C255.963 66.0667 253.91 67.5067 251.296 68.52C248.683 69.48 245.67 69.96 242.256 69.96ZM265.878 69V12.2H274.358V36.04L273.318 35.88C273.798 33.48 274.678 31.5333 275.958 30.04C277.238 28.4933 278.811 27.3467 280.678 26.6C282.545 25.8533 284.598 25.48 286.838 25.48C289.931 25.48 292.545 26.1733 294.678 27.56C296.811 28.8933 298.411 30.7867 299.478 33.24C300.598 35.6933 301.158 38.4933 301.158 41.64V69H292.678V43.88C292.678 40.04 292.011 37.2133 290.678 35.4C289.398 33.5333 287.371 32.6 284.598 32.6C281.505 32.6 279.025 33.5867 277.158 35.56C275.291 37.48 274.358 40.3067 274.358 44.04V69H265.878ZM321.804 69.96C317.378 69.96 313.831 68.9467 311.164 66.92C308.551 64.8933 307.244 62.04 307.244 58.36C307.244 54.68 308.338 51.8267 310.524 49.8C312.764 47.72 316.204 46.2267 320.844 45.32L335.484 42.52C335.484 39.2133 334.711 36.76 333.164 35.16C331.618 33.5067 329.324 32.68 326.284 32.68C323.564 32.68 321.431 33.2933 319.884 34.52C318.338 35.6933 317.271 37.4533 316.684 39.8L307.964 39.24C308.764 34.9733 310.738 31.6133 313.884 29.16C317.084 26.7067 321.218 25.48 326.284 25.48C332.044 25.48 336.418 27.0267 339.404 30.12C342.444 33.16 343.964 37.4533 343.964 43V59.56C343.964 60.5733 344.124 61.2933 344.444 61.72C344.818 62.0933 345.404 62.28 346.204 62.28H347.724V69C347.458 69.0533 347.031 69.1067 346.444 69.16C345.858 69.2133 345.244 69.24 344.604 69.24C342.791 69.24 341.218 68.9467 339.884 68.36C338.604 67.7733 337.644 66.8133 337.004 65.48C336.364 64.0933 336.044 62.2533 336.044 59.96L336.924 60.36C336.498 62.2267 335.564 63.88 334.124 65.32C332.738 66.76 330.951 67.9067 328.764 68.76C326.631 69.56 324.311 69.96 321.804 69.96ZM323.164 63.24C325.724 63.24 327.911 62.76 329.724 61.8C331.538 60.7867 332.951 59.4 333.964 57.64C334.978 55.88 335.484 53.88 335.484 51.64V48.92L323.004 51.32C320.444 51.8 318.631 52.5733 317.564 53.64C316.551 54.6533 316.044 55.96 316.044 57.56C316.044 59.3733 316.658 60.7867 317.884 61.8C319.164 62.76 320.924 63.24 323.164 63.24ZM348.319 69L368.799 12.2H379.759L400.239 69H391.039L385.839 54.2H362.639L357.519 69H348.319ZM365.359 46.36H383.199L374.239 20.44L365.359 46.36ZM404.636 69V12.2H413.276V69H404.636Z" fill="black"/>
<path d="M35.7006 17.2657C35.943 17.4087 36.9532 18.2466 37.923 19.1458C39.6606 20.7398 42.6104 23.4373 46.0653 26.5844C46.9947 27.4428 47.8635 28.2398 47.9847 28.3419C48.1059 28.4646 50.0253 30.2016 52.2478 32.2248C54.4702 34.2479 56.329 35.9441 56.3896 36.0054C56.6119 36.2302 60.3699 39.6226 61.0972 40.2561L61.865 40.91H66.7948H71.7448L72.3913 40.3174L73.0581 39.7248L73.1591 28.955L73.2601 18.1853L73.9268 17.5926L74.5734 17H84.9785C92.0096 17 95.5251 17.0613 95.8483 17.2248C97.0202 17.7561 97 17.654 97 28.9959C97 38.9891 96.9242 40.0027 96.9242 40.0925C96.9242 40.7056 96.1716 40.7261 96.1514 40.7465C96.111 40.767 91.2418 40.8487 85.3422 40.91L74.5734 41.0122L73.9268 41.6866L73.2601 42.3406L73.1591 53.0694L73.0581 63.7983L72.553 64.2887L72.0479 64.7996L67.1989 64.8201C64.5319 64.8201 62.0872 64.8405 61.7841 64.8201C61.3801 64.8201 60.8345 64.4522 59.7637 63.4509C57.2988 61.1416 55.9451 59.895 53.7631 57.8719C52.5912 56.8092 51.0557 55.3787 50.3284 54.6838C49.601 54.0095 48.51 52.9877 47.9039 52.4359C41.5194 46.5095 39.8828 44.9768 37.6402 42.831C36.8118 42.0544 35.9026 41.3188 35.6198 41.1757C35.2359 41.0122 33.5791 40.9305 30.3667 40.91C25.154 40.91 24.7903 40.9918 24.063 42.1975C23.6791 42.831 23.6589 43.301 23.6589 53.2942V63.7165L23.0326 64.3296L22.4264 64.9223L12.587 64.9835C7.17231 65.0244 2.36372 64.9836 1.89902 64.9223C1.39392 64.8405 0.868608 64.5953 0.545342 64.2683L0.0200372 63.737V53.0285C0.0200372 46.0803 -0.131494 42.0727 0.398865 41.4719C0.929224 40.8712 0.909018 40.91 11.9203 40.91H22.2446L22.8911 40.3174L23.5579 39.7248L23.6589 28.955L23.7599 18.1853L24.4267 17.5926L25.0732 17H30.1848C33.8014 17.0204 35.3975 17.0818 35.7006 17.2657Z" fill="black"/>
</svg>
