<svg width="100" height="33" viewBox="0 0 231 33" fill="none" xmlns="http://www.w3.org/2000/svg">
    <path
        d="M87.3222 33C84.8066 33 82.6165 32.5404 80.752 31.6213C78.917 30.7022 77.4668 29.4272 76.4014 27.7965C75.3359 26.1658 74.7144 24.2682 74.5368 22.1038L79.4645 21.7925C79.6717 23.2749 80.1008 24.535 80.752 25.5728C81.4031 26.5809 82.2761 27.3518 83.3712 27.8854C84.4958 28.3895 85.8424 28.6415 87.411 28.6415C88.7724 28.6415 89.9266 28.4784 90.8737 28.1523C91.8503 27.7965 92.5902 27.2776 93.0934 26.5957C93.5965 25.9137 93.8481 25.0836 93.8481 24.1051C93.8481 23.2156 93.6261 22.4299 93.1822 21.748C92.7678 21.0364 91.9539 20.3989 90.7405 19.8356C89.5567 19.2426 87.8105 18.6644 85.5021 18.1011C82.9864 17.4784 80.9739 16.7965 79.4645 16.0553C77.9552 15.314 76.8601 14.3949 76.1794 13.2978C75.5283 12.1712 75.2028 10.7925 75.2028 9.16172C75.2028 7.3531 75.6319 5.76685 76.4902 4.40296C77.378 3.00943 78.6359 1.92722 80.2636 1.15633C81.8914 0.385444 83.8447 0 86.1236 0C88.5208 0 90.5629 0.444744 92.2499 1.33423C93.9665 2.22372 95.313 3.43935 96.2897 4.98113C97.296 6.52291 97.9175 8.28706 98.1542 10.2736L93.2265 10.5404C93.0786 9.3248 92.7086 8.25741 92.1167 7.33827C91.5248 6.38949 90.7257 5.66307 89.7195 5.15903C88.7132 4.62534 87.485 4.35849 86.0348 4.35849C84.1999 4.35849 82.7497 4.78841 81.6842 5.64825C80.6484 6.47844 80.1304 7.5903 80.1304 8.98383C80.1304 9.87332 80.3376 10.6294 80.752 11.252C81.1959 11.845 81.9654 12.3639 83.0604 12.8086C84.1851 13.2534 85.7684 13.7278 87.8105 14.2318C90.5333 14.8544 92.6938 15.6253 94.292 16.5445C95.9198 17.434 97.074 18.4865 97.7547 19.7022C98.4354 20.9178 98.7757 22.2965 98.7757 23.8383C98.7757 25.7062 98.2874 27.3369 97.3108 28.7305C96.3637 30.0943 95.0319 31.1469 93.3153 31.8881C91.5988 32.6294 89.6011 33 87.3222 33Z"
        fill="black" />
    <path
        d="M110.145 32.8221C107.689 32.8221 105.721 32.2588 104.241 31.1321C102.791 30.0054 102.066 28.4191 102.066 26.3733C102.066 24.3275 102.672 22.7412 103.886 21.6146C105.129 20.4582 107.038 19.628 109.613 19.124L117.737 17.5674C117.737 15.7291 117.308 14.3652 116.449 13.4757C115.591 12.5566 114.318 12.097 112.631 12.097C111.122 12.097 109.938 12.438 109.08 13.1199C108.222 13.7722 107.63 14.7507 107.304 16.0553L102.465 15.7439C102.909 13.372 104.004 11.504 105.75 10.1402C107.526 8.77628 109.82 8.09434 112.631 8.09434C115.828 8.09434 118.255 8.95418 119.912 10.6739C121.599 12.3639 122.442 14.7507 122.442 17.8342V27.0404C122.442 27.6038 122.531 28.004 122.709 28.2412C122.916 28.4488 123.241 28.5526 123.685 28.5526H124.529V32.2884C124.381 32.3181 124.144 32.3477 123.819 32.3774C123.493 32.407 123.153 32.4218 122.798 32.4218C121.791 32.4218 120.918 32.2588 120.178 31.9326C119.468 31.6065 118.935 31.0728 118.58 30.3315C118.225 29.5606 118.047 28.5377 118.047 27.2628L118.536 27.4852C118.299 28.5229 117.781 29.4421 116.982 30.2426C116.212 31.0431 115.221 31.6806 114.008 32.155C112.824 32.5997 111.536 32.8221 110.145 32.8221ZM110.9 29.0863C112.321 29.0863 113.534 28.8194 114.54 28.2857C115.547 27.7224 116.331 26.9515 116.893 25.973C117.456 24.9946 117.737 23.8828 117.737 22.6375V21.1253L110.811 22.4596C109.391 22.7264 108.384 23.1563 107.793 23.7493C107.23 24.3127 106.949 25.0391 106.949 25.9286C106.949 26.9367 107.289 27.7224 107.97 28.2857C108.68 28.8194 109.657 29.0863 110.9 29.0863Z"
        fill="black" />
    <path
        d="M136.098 32.8221C133.878 32.8221 131.999 32.4811 130.46 31.7992C128.95 31.1173 127.781 30.1833 126.953 28.9973C126.124 27.7817 125.65 26.3881 125.532 24.8167L130.371 24.5943C130.608 25.8989 131.17 26.9367 132.058 27.7075C132.946 28.4784 134.292 28.8639 136.098 28.8639C137.577 28.8639 138.746 28.6267 139.605 28.1523C140.463 27.6779 140.892 26.9218 140.892 25.8841C140.892 25.3208 140.744 24.8464 140.448 24.4609C140.182 24.0458 139.649 23.7049 138.85 23.438C138.051 23.1415 136.867 22.8598 135.299 22.593C132.96 22.1482 131.126 21.6294 129.794 21.0364C128.462 20.4434 127.515 19.6873 126.953 18.7682C126.39 17.8491 126.109 16.7372 126.109 15.4326C126.109 13.2682 126.908 11.504 128.506 10.1402C130.134 8.77628 132.472 8.09434 135.52 8.09434C137.563 8.09434 139.279 8.45013 140.67 9.16172C142.061 9.84367 143.141 10.7776 143.911 11.9636C144.71 13.1199 145.213 14.4245 145.42 15.8774L140.581 16.1442C140.433 15.314 140.137 14.6024 139.693 14.0094C139.279 13.3868 138.717 12.9124 138.007 12.5863C137.296 12.2305 136.453 12.0526 135.476 12.0526C133.967 12.0526 132.842 12.3491 132.102 12.942C131.362 13.535 130.992 14.3059 130.992 15.2547C130.992 15.9663 131.155 16.5445 131.481 16.9892C131.836 17.434 132.398 17.8046 133.168 18.1011C133.937 18.3679 134.958 18.6051 136.231 18.8127C138.687 19.2278 140.611 19.7466 142.002 20.3693C143.393 20.9623 144.37 21.7035 144.932 22.593C145.494 23.4825 145.775 24.5647 145.775 25.8396C145.775 27.3221 145.361 28.5822 144.532 29.6199C143.704 30.6577 142.564 31.4582 141.114 32.0216C139.664 32.5553 137.992 32.8221 136.098 32.8221Z"
        fill="black" />
    <path
        d="M149.206 32.2884V0.711589H153.912V13.965L153.334 13.876C153.601 12.5418 154.089 11.4596 154.799 10.6294C155.51 9.76954 156.383 9.13207 157.419 8.71698C158.455 8.30189 159.594 8.09434 160.837 8.09434C162.554 8.09434 164.004 8.47978 165.188 9.25067C166.371 9.99191 167.259 11.0445 167.851 12.4084C168.473 13.7722 168.783 15.3288 168.783 17.0782V32.2884H164.078V18.3235C164.078 16.1887 163.708 14.6173 162.968 13.6092C162.258 12.5714 161.133 12.0526 159.594 12.0526C157.877 12.0526 156.501 12.6011 155.465 13.6981C154.429 14.7655 153.912 16.3369 153.912 18.4124V32.2884H149.206Z"
        fill="black" />
    <path
        d="M180.24 32.8221C177.784 32.8221 175.816 32.2588 174.336 31.1321C172.886 30.0054 172.161 28.4191 172.161 26.3733C172.161 24.3275 172.768 22.7412 173.981 21.6146C175.224 20.4582 177.133 19.628 179.708 19.124L187.832 17.5674C187.832 15.7291 187.403 14.3652 186.544 13.4757C185.686 12.5566 184.413 12.097 182.726 12.097C181.217 12.097 180.033 12.438 179.175 13.1199C178.317 13.7722 177.725 14.7507 177.399 16.0553L172.56 15.7439C173.004 13.372 174.099 11.504 175.845 10.1402C177.621 8.77628 179.915 8.09434 182.726 8.09434C185.923 8.09434 188.35 8.95418 190.007 10.6739C191.694 12.3639 192.537 14.7507 192.537 17.8342V27.0404C192.537 27.6038 192.626 28.004 192.804 28.2412C193.011 28.4488 193.337 28.5526 193.78 28.5526H194.624V32.2884C194.476 32.3181 194.239 32.3477 193.914 32.3774C193.588 32.407 193.248 32.4218 192.893 32.4218C191.886 32.4218 191.013 32.2588 190.273 31.9326C189.563 31.6065 189.03 31.0728 188.675 30.3315C188.32 29.5606 188.142 28.5377 188.142 27.2628L188.631 27.4852C188.394 28.5229 187.876 29.4421 187.077 30.2426C186.308 31.0431 185.316 31.6806 184.103 32.155C182.919 32.5997 181.631 32.8221 180.24 32.8221ZM180.995 29.0863C182.416 29.0863 183.629 28.8194 184.635 28.2857C185.642 27.7224 186.426 26.9515 186.988 25.973C187.551 24.9946 187.832 23.8828 187.832 22.6375V21.1253L180.906 22.4596C179.486 22.7264 178.479 23.1563 177.888 23.7493C177.325 24.3127 177.044 25.0391 177.044 25.9286C177.044 26.9367 177.384 27.7224 178.065 28.2857C178.775 28.8194 179.752 29.0863 180.995 29.0863Z"
        fill="black" />
    <path
        d="M194.954 32.2884L206.319 0.711589H212.4L223.765 32.2884H218.66L215.774 24.0606H202.9L200.059 32.2884H194.954ZM204.41 19.7022H214.309L209.337 5.29245L204.41 19.7022Z"
        fill="black" />
    <path d="M226.205 32.2884V0.711589H231V32.2884H226.205Z" fill="black" />
    <path
        d="M16.3389 4.615C16.4499 4.68127 16.9122 5.06943 17.3561 5.486C18.1513 6.22446 19.5013 7.47416 21.0825 8.93215C21.5079 9.32978 21.9055 9.69901 21.961 9.74635C22.0164 9.80315 22.8949 10.6079 23.912 11.5452C24.9292 12.4824 25.7799 13.2682 25.8076 13.2966C25.9093 13.4008 27.6292 14.9724 27.9621 15.2659L28.3135 15.5688H32.8351L33.131 15.2943L33.4362 15.0197L33.5287 5.04103L33.8338 4.76647L34.1297 4.49191H38.8918C42.1096 4.49191 43.7186 4.52032 43.8665 4.59606C44.4028 4.84221 44.3936 4.79488 44.3936 10.0493C44.3936 14.6789 44.3589 15.1485 44.3589 15.1901C44.3589 15.4741 44.0145 15.4836 44.0052 15.4931C43.9867 15.5026 41.7583 15.5404 39.0582 15.5688L34.1297 15.6162L33.8338 15.9286L33.5287 16.2316L33.4362 26.1724L33.205 26.3996L32.9738 26.6363L30.7546 26.6458C29.5341 26.6458 28.4152 26.6552 28.2765 26.6458C28.0916 26.6458 27.8419 26.4753 27.3518 26.0114C26.2237 24.9416 25.6042 24.3641 24.6055 23.4268C24.0692 22.9345 23.3665 22.2718 23.0336 21.9499C22.7007 21.6375 22.2014 21.1641 21.924 20.9085C19.002 18.1629 18.253 17.4529 17.2266 16.4588C16.8475 16.099 16.4314 15.7582 16.3019 15.6919C16.1263 15.6162 15.368 15.5783 13.8978 15.5688C11.5121 15.5688 11.3457 15.6067 11.0128 16.1653C10.8371 16.4588 10.8279 16.6765 10.8279 21.3061V26.1345L10.2638 26.6931L5.76065 26.7215C3.28252 26.7404 1.08179 26.7215 0.869118 26.6931C0.637949 26.6552 0.397532 26.5416 0.249584 26.3901L0.00917033 26.144V21.183C0.00917033 17.9641 -0.0601803 16.1074 0.182547 15.8292C0.425274 15.5509 0.416027 15.5688 5.45551 15.5688H10.1806L10.4765 15.2943L10.7816 15.0197L10.8741 5.04103L11.1792 4.76647L11.4751 4.49191H13.8146C15.4697 4.50138 16.2002 4.52979 16.3389 4.615Z"
        fill="black" />
</svg>