<svg width="400" height="57" viewBox="0 0 400 57" fill="none" xmlns="http://www.w3.org/2000/svg">
<path d="M151.207 57C146.851 57 143.059 56.2062 139.83 54.6186C136.653 53.031 134.142 50.8288 132.297 48.0121C130.452 45.1954 129.376 41.9178 129.068 38.1792L137.601 37.6415C137.96 40.2022 138.703 42.3787 139.83 44.1712C140.958 45.9124 142.47 47.2439 144.366 48.1658C146.313 49.0364 148.645 49.4717 151.361 49.4717C153.718 49.4717 155.717 49.19 157.357 48.6267C159.048 48.0121 160.329 47.1159 161.201 45.938C162.072 44.7601 162.507 43.3261 162.507 41.6361C162.507 40.0997 162.123 38.7426 161.354 37.5647C160.637 36.3356 159.228 35.2345 157.126 34.2615C155.077 33.2372 152.053 32.2385 148.056 31.2655C143.699 30.19 140.215 29.0121 137.601 27.7318C134.987 26.4515 133.091 24.8639 131.912 22.969C130.785 21.0229 130.221 18.6415 130.221 15.8248C130.221 12.7008 130.964 9.96092 132.451 7.60512C133.988 5.19811 136.166 3.32884 138.985 1.9973C141.803 0.665767 145.186 0 149.132 0C153.283 0 156.819 0.768193 159.74 2.30458C162.712 3.84097 165.044 5.9407 166.735 8.60377C168.478 11.2668 169.554 14.314 169.964 17.7453L161.431 18.2062C161.175 16.1065 160.534 14.2628 159.509 12.6752C158.485 11.0364 157.101 9.78167 155.358 8.91105C153.616 7.98922 151.489 7.5283 148.978 7.5283C145.801 7.5283 143.289 8.27089 141.445 9.75606C139.651 11.19 138.754 13.1105 138.754 15.5175C138.754 17.0539 139.113 18.3598 139.83 19.4353C140.599 20.4596 141.931 21.3558 143.828 22.124C145.775 22.8922 148.517 23.7116 152.053 24.5822C156.768 25.6577 160.509 26.9892 163.276 28.5768C166.095 30.1132 168.094 31.9313 169.272 34.031C170.451 36.1307 171.04 38.5121 171.04 41.1752C171.04 44.4016 170.195 47.2183 168.503 49.6253C166.864 51.9811 164.557 53.7992 161.585 55.0795C158.613 56.3598 155.153 57 151.207 57Z" fill="black"/>
<path d="M190.728 56.6927C186.474 56.6927 183.066 55.7197 180.504 53.7736C177.993 51.8275 176.737 49.0876 176.737 45.5539C176.737 42.0202 177.788 39.2803 179.889 37.3342C182.041 35.3369 185.347 33.903 189.805 33.0323L203.873 30.3437C203.873 27.1685 203.13 24.8127 201.644 23.2763C200.158 21.6887 197.954 20.8949 195.033 20.8949C192.419 20.8949 190.369 21.4838 188.883 22.6617C187.397 23.7884 186.372 25.4784 185.808 27.7318L177.429 27.1941C178.198 23.097 180.094 19.8706 183.118 17.5148C186.192 15.159 190.164 13.9811 195.033 13.9811C200.568 13.9811 204.77 15.4663 207.64 18.4367C210.561 21.3558 212.021 25.4784 212.021 30.8046V46.7062C212.021 47.6792 212.175 48.3706 212.483 48.7803C212.841 49.1388 213.405 49.3181 214.174 49.3181H215.634V55.7709C215.378 55.8221 214.968 55.8733 214.405 55.9245C213.841 55.9757 213.251 56.0014 212.636 56.0014C210.894 56.0014 209.382 55.7197 208.101 55.1563C206.871 54.593 205.949 53.6712 205.334 52.3908C204.719 51.0593 204.411 49.2925 204.411 47.0903L205.257 47.4744C204.847 49.2669 203.95 50.8545 202.566 52.2372C201.234 53.62 199.517 54.721 197.416 55.5404C195.366 56.3086 193.137 56.6927 190.728 56.6927ZM192.035 50.2399C194.495 50.2399 196.596 49.779 198.338 48.8571C200.081 47.8841 201.439 46.5526 202.412 44.8625C203.386 43.1725 203.873 41.252 203.873 39.1011V36.4892L191.881 38.7938C189.421 39.2547 187.679 39.9973 186.654 41.0216C185.68 41.9946 185.193 43.2493 185.193 44.7857C185.193 46.527 185.782 47.8841 186.961 48.8571C188.191 49.779 189.882 50.2399 192.035 50.2399Z" fill="black"/>
<path d="M235.667 56.6927C231.823 56.6927 228.569 56.1038 225.904 54.9259C223.29 53.748 221.266 52.1348 219.831 50.0863C218.396 47.9865 217.576 45.5795 217.371 42.8652L225.75 42.4811C226.16 44.7345 227.134 46.527 228.671 47.8585C230.209 49.19 232.541 49.8558 235.667 49.8558C238.229 49.8558 240.254 49.4461 241.74 48.6267C243.226 47.8073 243.969 46.5014 243.969 44.7089C243.969 43.7359 243.713 42.9164 243.2 42.2507C242.739 41.5337 241.817 40.9447 240.433 40.4838C239.049 39.9717 236.999 39.4852 234.283 39.0243C230.235 38.2561 227.057 37.3598 224.751 36.3356C222.445 35.3113 220.805 34.0054 219.831 32.4178C218.857 30.8302 218.371 28.9097 218.371 26.6563C218.371 22.9178 219.754 19.8706 222.522 17.5148C225.34 15.159 229.389 13.9811 234.667 13.9811C238.204 13.9811 241.176 14.5957 243.585 15.8248C245.993 17.0027 247.864 18.6159 249.196 20.6644C250.58 22.6617 251.451 24.9151 251.81 27.4245L243.431 27.8854C243.175 26.4515 242.662 25.2224 241.893 24.1981C241.176 23.1226 240.202 22.3032 238.972 21.7399C237.742 21.1253 236.282 20.8181 234.591 20.8181C231.977 20.8181 230.03 21.3302 228.748 22.3544C227.467 23.3787 226.827 24.7102 226.827 26.3491C226.827 27.5782 227.108 28.5768 227.672 29.345C228.287 30.1132 229.261 30.7534 230.593 31.2655C231.926 31.7264 233.694 32.1361 235.897 32.4946C240.151 33.2116 243.482 34.1078 245.891 35.1833C248.299 36.2075 249.991 37.4879 250.964 39.0243C251.938 40.5607 252.425 42.4299 252.425 44.6321C252.425 47.1927 251.707 49.3693 250.273 51.1617C248.838 52.9542 246.865 54.3369 244.353 55.31C241.842 56.2318 238.947 56.6927 235.667 56.6927Z" fill="black"/>
<path d="M258.365 55.7709V1.22911H266.514V24.1213L265.514 23.9677C265.975 21.6631 266.821 19.7938 268.051 18.3598C269.281 16.8747 270.793 15.7736 272.586 15.0566C274.38 14.3396 276.353 13.9811 278.506 13.9811C281.478 13.9811 283.989 14.6469 286.039 15.9784C288.089 17.2588 289.626 19.0768 290.651 21.4326C291.728 23.7884 292.266 26.4771 292.266 29.4987V55.7709H284.117V31.6496C284.117 27.9623 283.477 25.248 282.195 23.5067C280.965 21.7143 279.018 20.8181 276.353 20.8181C273.381 20.8181 270.998 21.7655 269.204 23.6604C267.41 25.504 266.514 28.2183 266.514 31.8032V55.7709H258.365Z" fill="black"/>
<path d="M312.105 56.6927C307.851 56.6927 304.443 55.7197 301.881 53.7736C299.37 51.8275 298.114 49.0876 298.114 45.5539C298.114 42.0202 299.165 39.2803 301.266 37.3342C303.418 35.3369 306.724 33.903 311.182 33.0323L325.25 30.3437C325.25 27.1685 324.507 24.8127 323.021 23.2763C321.534 21.6887 319.331 20.8949 316.41 20.8949C313.796 20.8949 311.746 21.4838 310.26 22.6617C308.774 23.7884 307.749 25.4784 307.185 27.7318L298.806 27.1941C299.575 23.097 301.471 19.8706 304.494 17.5148C307.569 15.159 311.541 13.9811 316.41 13.9811C321.944 13.9811 326.147 15.4663 329.017 18.4367C331.938 21.3558 333.398 25.4784 333.398 30.8046V46.7062C333.398 47.6792 333.552 48.3706 333.859 48.7803C334.218 49.1388 334.782 49.3181 335.551 49.3181H337.011V55.7709C336.755 55.8221 336.345 55.8733 335.781 55.9245C335.218 55.9757 334.628 56.0014 334.013 56.0014C332.271 56.0014 330.759 55.7197 329.478 55.1563C328.248 54.593 327.325 53.6712 326.71 52.3908C326.095 51.0593 325.788 49.2925 325.788 47.0903L326.633 47.4744C326.224 49.2669 325.327 50.8545 323.943 52.2372C322.61 53.62 320.894 54.721 318.793 55.5404C316.743 56.3086 314.513 56.6927 312.105 56.6927ZM313.412 50.2399C315.871 50.2399 317.973 49.779 319.715 48.8571C321.457 47.8841 322.815 46.5526 323.789 44.8625C324.763 43.1725 325.25 41.252 325.25 39.1011V36.4892L313.258 38.7938C310.798 39.2547 309.055 39.9973 308.03 41.0216C307.057 41.9946 306.57 43.2493 306.57 44.7857C306.57 46.527 307.159 47.8841 308.338 48.8571C309.568 49.779 311.259 50.2399 313.412 50.2399Z" fill="black"/>
<path d="M337.582 55.7709L357.262 1.22911H367.793L387.472 55.7709H378.632L373.635 41.5593H351.342L346.423 55.7709H337.582ZM353.956 34.031H371.099L362.489 9.14151L353.956 34.031Z" fill="black"/>
<path d="M391.698 55.7709V1.22911H400V55.7709H391.698Z" fill="black"/>
<path d="M28.2925 7.97136C28.4847 8.08583 29.2853 8.75629 30.0538 9.47581C31.4308 10.7513 33.7685 12.9099 36.5065 15.4283C37.2431 16.1151 37.9316 16.7528 38.0276 16.8346C38.1237 16.9327 39.6448 18.3227 41.4061 19.9417C43.1674 21.5606 44.6405 22.9179 44.6885 22.9669C44.8646 23.1468 47.8428 25.8614 48.4192 26.3683L49.0277 26.8916H56.8574L57.3698 26.4174L57.8982 25.9432L58.0583 8.70724L58.5867 8.233L59.099 7.75876H67.3451C72.9171 7.75876 75.7032 7.80782 75.9593 7.93864C76.888 8.36382 76.872 8.28206 76.872 17.3579C76.872 25.3545 76.812 26.1656 76.812 26.2374C76.812 26.728 76.2155 26.7444 76.1995 26.7608C76.1675 26.7772 72.3087 26.8426 67.6333 26.8916L59.099 26.9734L58.5867 27.513L58.0583 28.0363L57.8982 45.2068L57.4979 45.5993L57.0976 46.0081L53.2548 46.0245C51.1412 46.0245 49.2038 46.0408 48.9636 46.0245C48.6434 46.0245 48.2111 45.7301 47.3625 44.9288C45.409 43.081 44.3362 42.0834 42.607 40.4645C41.6783 39.6142 40.4614 38.4695 39.885 37.9135C39.3086 37.3738 38.4439 36.5562 37.9636 36.1146C32.9039 31.3723 31.607 30.1458 29.8297 28.4288C29.1732 27.8074 28.4526 27.2187 28.2285 27.1042C27.9243 26.9734 26.6113 26.908 24.0654 26.8916C19.9344 26.8916 19.6462 26.957 19.0698 27.9219C18.7656 28.4288 18.7496 28.8049 18.7496 36.8015V45.1414L17.7728 46.1063L9.97515 46.1553C5.68402 46.188 1.87324 46.1553 1.50497 46.1063C1.10467 46.0408 0.688368 45.8446 0.432181 45.583L0.0158794 45.1578V36.5889C0.0158794 31.0289 -0.104208 27.822 0.316099 27.3413C0.736406 26.8606 0.720393 26.8916 9.44677 26.8916H17.6287L18.1411 26.4174L18.6695 25.9432L18.8296 8.70724L19.358 8.233L19.8704 7.75876H23.9213C26.7874 7.77511 28.0524 7.82418 28.2925 7.97136Z" fill="black"/>
</svg>
